<svg width="32" height="29" viewBox="0 0 757 735" fill="none" xmlns="http://www.w3.org/2000/svg">
<path d="M457.645 641.145C448.21 654.808 437.227 667.38 424.682 678.635C383.027 716.008 328.428 735 267.422 735C205.925 735 148.417 715.183 107.585 674.938L42.4451 608.201C9.23702 568.361 -5.45615 516.154 1.82586 459.285L36.8553 199.686H70.5924C50.4283 179.028 38.1375 150.645 38.1375 119.103C38.1375 53.8218 88.5547 0 157.009 0C192.601 0 224.806 15.8912 246.083 41.3377L299.118 94.3638C308.631 80.5042 319.73 67.7597 332.431 56.3646C374.086 18.9918 428.685 -5.3324e-06 489.691 0C551.188 5.37533e-06 608.696 19.8174 649.528 60.0617C667.393 77.6689 684.598 95.931 702.462 113.538C745.566 156.021 762.865 216.551 755.262 275.907L720.258 535.314H681.109C701.944 555.658 714.946 584.014 714.946 615.971C714.946 680.705 664.328 734.895 596.371 734.895C564.633 734.895 536.313 722.33 515.884 701.887L515.86 701.912C496.583 681.72 475.746 662.389 457.645 641.145Z" fill="black"/>
<path d="M219.158 114.247C219.158 151.17 190.909 180.992 152.772 180.992C118.166 180.992 91.329 154.01 91.329 119.217C91.329 82.2948 118.872 53.1827 157.009 53.1827C191.615 53.1827 219.158 80.1647 219.158 114.247ZM484.36 149.929C521.889 149.929 542.424 175.375 536.759 217.784L509.191 424.502H616.822L645.098 214.957C657.136 120.95 588.45 57.3353 489.317 57.3353C391.599 57.3353 327.87 117.415 315.124 210.716L281.384 466.567C275.719 508.269 255.892 531.594 219.071 531.594C181.542 531.594 161.007 506.149 166.672 463.739L194.24 257.022H86.6091L58.3328 466.567C46.2951 560.574 114.981 624.188 214.115 624.188C311.832 624.188 375.561 564.108 388.307 470.808L422.047 214.957C427.712 173.255 447.539 149.929 484.36 149.929ZM610.569 561.785C610.569 598.708 582.319 628.53 544.183 628.53C509.577 628.53 482.74 601.548 482.74 566.755C482.74 529.833 510.283 500.721 548.42 500.721C583.026 500.721 610.569 527.703 610.569 561.785Z" fill="white"/>
<path d="M219.158 114.247C219.158 151.17 190.909 180.992 152.772 180.992C118.166 180.992 91.329 154.01 91.329 119.217C91.329 82.2948 118.872 53.1827 157.009 53.1827C191.615 53.1827 219.158 80.1647 219.158 114.247ZM484.36 149.929C521.889 149.929 542.424 175.375 536.759 217.784L509.191 424.502H616.822L645.098 214.957C657.136 120.95 588.45 57.3353 489.317 57.3353C391.599 57.3353 327.87 117.415 315.124 210.716L281.384 466.567C275.719 508.269 255.892 531.594 219.071 531.594C181.542 531.594 161.007 506.149 166.672 463.739L194.24 257.022H86.6091L58.3328 466.567C46.2951 560.574 114.981 624.188 214.115 624.188C311.832 624.188 375.561 564.108 388.307 470.808L422.047 214.957C427.712 173.255 447.539 149.929 484.36 149.929ZM610.569 561.785C610.569 598.708 582.319 628.53 544.183 628.53C509.577 628.53 482.74 601.548 482.74 566.755C482.74 529.833 510.283 500.721 548.42 500.721C583.026 500.721 610.569 527.703 610.569 561.785Z" stroke="black"/>
</svg>
